# AST/ASF file generated using VICON BodyLanguage
# -----------------------------------------------
:version 1.10
:name VICON
:units
  mass 1.0
  length 0.45
  angle deg
:documentation
   .ast/.asf automatically generated from VICON data using
   VICON BodyBuilder and BodyLanguage model FoxedUp or BRILLIANT.MOD
:root
   order TX TY TZ RX RY RZ
   axis XYZ
   position 0 0 0  
   orientation 0 0 0 
:bonedata
  begin
     id 1 
     name lhipjoint
     direction 0.693937 -0.600361 0.397515 
     length 2.37164 
     axis 0 0 0  XYZ
  end
  begin
     id 2 
     name lfemur
     direction 0.34202 -0.939693 0  
     length 6.18497  
     axis 0 0 20  XYZ
    dof rx ry rz
    limits (-160.0 20.0)
           (-70.0 70.0)
           (-60.0 70.0)
  end
  begin
     id 3 
     name ltibia
     direction 0.34202 -0.939693 0   
     length 6.91601   
     axis 0 0 20   XYZ
    dof rx
    limits (-10.0 170.0)
  end
  begin
     id 4 
     name lfoot
     direction 0.0978718 -0.2689 0.958182   
     length 1.81453   
     axis -90 7.62852e-016 20   XYZ
    dof rx rz
    limits (-45.0 90.0)
           (-70.0 20.0)
  end
  begin
     id 5 
     name ltoes
     direction 1.53569e-011 -4.21951e-011 1   
     length 0.912052   
     axis -90 7.62852e-016 20   XYZ
    dof rx
    limits (-90.0 20.0)
  end
  begin
     id 6 
     name rhipjoint
     direction -0.643996 -0.637876 0.422354   
     length 2.23216  
     axis 0 0 0  XYZ 
  end
  begin
     id 7 
     name rfemur
     direction -0.34202 -0.939693 0   
     length 6.15404   
     axis 0 0 -20   XYZ
    dof rx ry rz
    limits (-160.0 20.0)
           (-70.0 70.0)
           (-70.0 60.0)
  end
  begin
     id 8 
     name rtibia
     direction -0.34202 -0.939693 0   
     length 6.86744   
     axis 0 0 -20   XYZ
    dof rx
    limits (-10.0 170.0)
 end
 begin
     id 9 
     name rfoot
     direction -0.118701 -0.326127 0.937844   
     length 1.9243  
     axis -90 -7.62852e-016 -20   XYZ
    dof rx rz
    limits (-45.0 90.0)
           (-20.0 70.0)
  end
  begin
     id 10 
     name rtoes
     direction -1.5356e-011 -4.2181e-011 1   
     length 0.958865   
     axis -90 -7.62852e-016 -20   XYZ
    dof rx
    limits (-90.0 20.0)
  end
  begin
     id 11 
     name lowerback
     direction 0.0310826 0.968686 -0.246334   
     length 2.00021   
     axis 0 0 0   XYZ
    dof rx ry rz
    limits (-20.0 45.0)
           (-30.0 30.0)
           (-30.0 30.0)
  end
  begin
     id 12 
     name upperback
     direction -0.0152834 0.999474 -0.0286152   
     length 2.03728   
     axis 0 0 0   XYZ
    dof rx ry rz
    limits (-20.0 45.0)
           (-30.0 30.0)
           (-30.0 30.0)
  end
  begin
     id 13 
     name thorax
     direction -0.0323701 0.996236 0.0804149   
     length 2.16   
     axis 0 0 0   XYZ
    dof rx ry rz
    limits (-20.0 45.0)
           (-30.0 30.0)
           (-30.0 30.0)
  end
  begin
     id 14 
     name lowerneck
     direction 0.0307935 0.982251 0.185027   
     length 1.43558   
     axis 0 0 0   XYZ
    dof rx ry rz
    limits (-20.0 45.0)
           (-30.0 30.0)
           (-30.0 30.0)
  end
  begin
     id 15 
     name upperneck
     direction -0.0927153 0.994775 0.0427454   
     length 1.44603   
     axis 0 0 0   XYZ
    dof rx ry rz
    limits (-20.0 45.0)
           (-30.0 30.0)
           (-30.0 30.0)
  end
  begin
     id 16
     name head
     direction -0.0341265 0.999406 -0.00472033  
     length 1.45931  
     axis 0 0 0   XYZ
    dof rx ry rz
    limits (-20.0 45.0)
           (-30.0 30.0)
           (-30.0 30.0)
  end
  begin
     id 17 
     name lclavicle
     direction 0.820755 0.555306 -0.134151  
     length 2.66075  
     axis 0 0 0   XYZ
    dof ry rz
    limits (-20.0 10.0)
           (0.0 20.0)
  end
  begin
     id 18 
     name lhumerus
     direction 1 -4.48971e-011 5.24853e-027   
     length 5.0546   
     axis -180 -30 -90   XYZ
    dof rx ry rz
    limits (-60.0 90.0)
           (-90.0 90.0)
           (-90.0 90.0)
  end
  begin
     id 19
     name lradius
     direction 1 -4.48971e-011 2.76575e-028   
     length 3.39013   
     axis -180 -30 -90   XYZ
    dof rx
    limits (-10.0 170.0)
  end
  begin
     id 20
     name lwrist
     direction 1 -4.48939e-011 -2.27826e-027   
     length 1.69507   
     axis 2.17013e-015 90 90   XYZ
    dof ry
    limits (-180.0 0.0)
 end
  begin
     id 21 
     name lhand
     direction 1 -4.49009e-011 -4.55652e-027   
     length 0.572425   
     axis 2.90745e-015 90 90   XYZ
    dof rx rz
    limits (-90.0 90.0)
           (-45.0 45.0)
  end
  begin
     id 22 
     name lfingers
     direction 1 -4.48955e-011 -9.11303e-027   
     length 0.461504   
     axis 5.81489e-015 90 90   XYZ
    dof rx
    limits (0.0 90.0)
  end
  begin
     id 23
     name lthumb
     direction 0.707107 -6.34929e-011 0.707107   
     length 0.66263   
     axis -90 45 2.85299e-015   XYZ
    dof rx rz
    limits (-45.0 45.0)
           (-45.0 45.0)
  end
  begin
     id 24 
     name rclavicle
     direction -0.754477 0.632921 -0.173712   
     length 2.73081  
     axis 0 0 0   XYZ 
    dof ry rz
    limits (-10.0 20.0)
           (-20.0 0.0)
  end
  begin
     id 25 
     name rhumerus
     direction -1 -4.48969e-011 5.1496e-027  
     length 5.0701   
     axis -180 30 90   XYZ
    dof rx ry rz
    limits (-90.0 60.0)
           (-90.0 90.0)
           (-90.0 90.0)
  end
  begin
     id 26 
     name rradius
     direction -1 -4.48967e-011 -7.15624e-028   
     length 3.14957   
     axis -180 30 90   XYZ
    dof rx
    limits (-10.0 170.0)
  end
  begin
     id 27 
     name rwrist
     direction -1 -4.48938e-011 -2.27826e-027   
     length 1.57479   
     axis 2.17013e-015 -90 -90   XYZ
    dof ry
    limits (-180.0 0.0)
  end
  begin
     id 28
     name rhand
     direction -1 -4.49008e-011 -4.55652e-027   
     length 0.718191   
     axis 2.90745e-015 -90 -90   XYZ
    dof rx rz
    limits (-90.0 90.0)
           (-45.0 45.0)
  end
  begin
     id 29
     name rfingers
     direction -1 -4.48953e-011 -9.11303e-027   
     length 0.579024   
     axis 5.81489e-015 -90 -90   XYZ
    dof rx
    limits (0.0 90.0)
  end
  begin
     id 30
     name rthumb
     direction -0.707107 -6.34937e-011 0.707107   
     length 0.831366   
     axis -90 -45 -2.85299e-015   XYZ
    dof rx rz
    limits (-45.0 45.0)
           (-45.0 45.0)
  end
:hierarchy
  begin
    root lhipjoint rhipjoint lowerback
    lhipjoint lfemur
    lfemur ltibia
    ltibia lfoot
    lfoot ltoes
    rhipjoint rfemur
    rfemur rtibia
    rtibia rfoot
    rfoot rtoes
    lowerback upperback
    upperback thorax
    thorax lowerneck lclavicle rclavicle
    lowerneck upperneck
    upperneck head
    lclavicle lhumerus
    lhumerus lradius
    lradius lwrist
    lwrist lhand lthumb
    lhand lfingers
    rclavicle rhumerus
    rhumerus rradius
    rradius rwrist
    rwrist rhand rthumb
    rhand rfingers
  end

#!OML:ASF H:\Male1\Project 1\Capture day 1\Session 1\Male1.ASF
:FULLY-SPECIFIED
:DEGREES
40
root 16.8462 15.4519 -0.594757 174.207 -81.2713 -177.082
lowerback 4.64237 1.72746 -1.63975
upperback 2.21706 2.17611 -0.99209
thorax -0.34698 1.06041 -0.204231
lowerneck -5.304 -0.412064 5.44145
upperneck 3.91813 -0.93463 -0.614638
head 2.1268 -0.403465 -1.16522
rclavicle 2.67862e-014 -5.1684e-015
rhumerus -35.5513 7.11891 -92.2488
rradius 30.6941
rwrist -18.0002
rhand -15.8849 0.338906
rfingers 7.12502
rthumb 10.3112 -29.3883
lclavicle 2.67862e-014 -5.1684e-015
lhumerus -36.0339 2.29387 81.0306
lradius 30.8008
lwrist -2.22936
lhand -17.1794 10.9597
lfingers 7.12502
lthumb 9.06224 40.745
rfemur -0.828567 16.0151 23.974
rtibia 21.2583
rfoot -33.7246 -31.8566
rtoes -9.949
lfemur -0.710714 -16.9643 -21.4939
ltibia 23.1965
lfoot -26.4795 29.1118
ltoes 1.29789
41
root 16.8468 15.452 -0.59624 174.272 -81.3007 -177.115
lowerback 4.66246 1.75328 -1.61206
upperback 2.19249 2.21096 -1.00818
thorax -0.382024 1.07851 -0.239041
lowerneck -5.12106 -0.00762996 5.66039
upperneck 3.62678 -0.391991 -0.698342
head 2.01703 -0.13732 -1.20885
rclavicle 1.59276e-014 -2.38542e-015
rhumerus -35.5815 6.9606 -92.1761
rradius 30.7336
rwrist -17.7329
rhand -15.9127 0.395395
rfingers 7.12502
rthumb 10.2844 -29.3332
lclavicle 1.59276e-014 -2.38542e-015
lhumerus -36.0559 2.00874 81.0663
lradius 30.8673
lwrist -2.22863
lhand -17.8437 10.3612
lfingers 7.12502
lthumb 8.4212 40.1733
rfemur -0.902505 16.0627 23.9745
rtibia 21.3412
rfoot -33.8735 -31.8434
rtoes -9.78297
lfemur -0.731687 -16.8785 -21.4555
ltibia 23.1354
lfoot -26.4614 28.9729
ltoes 1.35044
42
root 16.8478 15.4511 -0.596703 174.383 -81.3492 -177.218
lowerback 4.73745 1.77709 -1.54435
upperback 2.15871 2.24259 -1.06214
thorax -0.453966 1.0954 -0.336849
lowerneck -5.0071 0.326556 5.87669
upperneck 3.4501 0.0490884 -0.735776
head 1.95556 0.0811517 -1.24283
rclavicle 9.0944e-015 1.23246e-014
rhumerus -35.7167 6.90233 -92.2177
rradius 30.8009
rwrist -17.8582
rhand -15.9901 0.401511
rfingers 7.12502
rthumb 10.2097 -29.3307
lclavicle 9.0944e-015 1.23246e-014
lhumerus -36.0839 1.69581 81.0797
lradius 30.8901
lwrist -2.05975
lhand -18.0172 11.4877
lfingers 7.12502
lthumb 8.25378 41.3065
rfemur -0.941284 16.0069 23.9512
rtibia 21.4124
rfoot -33.9338 -31.7672
rtoes -9.64074
lfemur -0.706495 -17.0495 -21.5
ltibia 23.0834
lfoot -26.5599 29.0501
ltoes 1.4488
43
root 16.8485 15.4502 -0.597288 175.276 -81.3851 -178.129
lowerback 4.80925 1.81286 -1.61493
upperback 2.15177 2.28303 -1.14612
thorax -0.50059 1.11515 -0.388112
lowerneck -5.08131 0.619349 6.18744
upperneck 3.46584 0.421445 -0.926539
head 1.99228 0.266668 -1.34803
rclavicle 2.56432e-014 -3.97569e-015
rhumerus -35.7611 6.77335 -92.245
rradius 30.8027
rwrist -17.9253
rhand -16.0502 0.255742
rfingers 7.12502
rthumb 10.1518 -29.4793
lclavicle 2.56432e-014 -3.97569e-015
lhumerus -35.9886 1.47852 81.049
lradius 30.8039
lwrist -1.95462
lhand -18.2199 12.455
lfingers 7.12502
lthumb 8.05814 42.2814
rfemur -0.961417 15.94 23.7948
rtibia 21.4549
rfoot -33.8389 -31.8207
rtoes -10.147
lfemur -0.671853 -17.1846 -21.6808
ltibia 23.049
lfoot -26.5721 29.1442
ltoes 1.48736
44
root 16.8483 15.4506 -0.598838 175.525 -81.3756 -178.389
lowerback 4.81133 1.85259 -1.63103
upperback 2.186 2.33431 -1.17212
thorax -0.466421 1.14 -0.407821
lowerneck -5.14069 0.889383 6.47072
upperneck 3.44338 0.768789 -1.1568
head 2.01512 0.437754 -1.46184
rclavicle 3.42904e-015 -1.74931e-014
rhumerus -35.7375 6.66662 -92.254
rradius 30.7077
rwrist -18.1912
rhand -15.9795 0.34893
rfingers 7.12502
rthumb 10.2199 -29.3828
lclavicle 3.42904e-015 -1.74931e-014
lhumerus -35.8154 1.33847 81.0283
lradius 30.6822
lwrist -1.94663
lhand -18.482 12.8744
lfingers 7.12502
lthumb 7.8051 42.7104
rfemur -0.991701 15.947 23.7606
rtibia 21.5121
rfoot -33.7682 -31.9484
rtoes -10.6792
lfemur -0.633594 -17.1313 -21.7124
ltibia 22.9907
lfoot -26.5058 29.1051
ltoes 1.65709
45
root 16.8477 15.4517 -0.601081 175.4 -81.3601 -178.272
lowerback 4.79099 1.89385 -1.58531
upperback 2.23562 2.39141 -1.18458
thorax -0.402053 1.16795 -0.447303
lowerneck -5.19368 1.15398 6.68516
upperneck 3.3888 1.11078 -1.31842
head 2.02625 0.606167 -1.54111
rclavicle -2.83765e-014 1.98785e-015
rhumerus -35.759 6.66935 -92.3265
rradius 30.5346
rwrist -18.9729
rhand -15.9404 1.17961
rfingers 7.12502
rthumb 10.2576 -28.5503
lclavicle -2.83765e-014 1.98785e-015
lhumerus -35.7181 1.16184 81.0215
lradius 30.7056
lwrist -1.96954
lhand -18.5294 13.3751
lfingers 7.12502
lthumb 7.75937 43.2128
rfemur -0.997061 16.029 23.8059
rtibia 21.5523
rfoot -33.8107 -32.0234
rtoes -10.6717
lfemur -0.599833 -17.0945 -21.6834
ltibia 22.9438
lfoot -26.432 29.1482
ltoes 1.49102
46
root 16.8468 15.4517 -0.603682 175.839 -81.3626 -178.742
lowerback 4.80731 1.92577 -1.64281
upperback 2.27598 2.42991 -1.21127
thorax -0.371051 1.18597 -0.444258
lowerneck -5.26525 1.27179 6.7361
upperneck 3.46733 1.26368 -1.42074
head 2.07413 0.682166 -1.57899
rclavicle -9.14409e-015 -1.03368e-014
rhumerus -35.6985 6.4995 -92.2518
rradius 30.5033
rwrist -18.8207
rhand -15.711 0.859463
rfingers 7.12502
rthumb 10.479 -28.8594
lclavicle -9.14409e-015 -1.03368e-014
lhumerus -35.6919 0.967838 81.0277
lradius 30.8003
lwrist -2.00338
lhand -18.7472 13.5216
lfingers 7.12502
lthumb 7.54913 43.3669
rfemur -0.934239 16.1103 23.7598
rtibia 21.5085
rfoot -33.8319 -32.0658
rtoes -10.4661
lfemur -0.583063 -17.1173 -21.771
ltibia 22.9688
lfoot -26.373 29.2723
ltoes 1.1113
47
root 16.846 15.4512 -0.606197 175.357 -81.3238 -178.249
lowerback 4.81073 1.95813 -1.56199
upperback 2.28692 2.47683 -1.19415
thorax -0.359311 1.20986 -0.474117
lowerneck -5.29893 1.30437 6.80817
upperneck 3.58702 1.31104 -1.64982
head 2.12652 0.703708 -1.66621
rclavicle -1.16289e-014 -1.15295e-014
rhumerus -35.7022 6.40732 -92.1923
rradius 30.5527
rwrist -18.6218
rhand -15.7383 0.624869
rfingers 7.12502
rthumb 10.4526 -29.0953
lclavicle -1.16289e-014 -1.15295e-014
lhumerus -35.7407 0.801563 81.0276
lradius 30.9346
lwrist -2.05895
lhand -19.093 13.2701
lfingers 7.12502
lthumb 7.21535 43.1271
rfemur -0.893425 16.1877 23.8641
rtibia 21.4329
rfoot -33.8088 -32.0988
rtoes -10.4158
lfemur -0.60466 -17.1377 -21.6848
ltibia 23.0206
lfoot -26.4799 29.2706
ltoes 1.17883
48
root 16.8452 15.4513 -0.6097 173.98 -81.2147 -176.793
lowerback 4.7516 1.99944 -1.3383
upperback 2.28931 2.54473 -1.14083
thorax -0.316962 1.24561 -0.545495
lowerneck -5.54934 1.5938 7.29758
upperneck 3.5217 1.66968 -2.18673
head 2.1857 0.874205 -1.91894
rclavicle -2.6985e-014 1.07344e-014
rhumerus -35.7144 6.43679 -92.1818
rradius 30.6355
rwrist -18.6485
rhand -15.7972 0.420912
rfingers 7.12502
rthumb 10.3958 -29.3021
lclavicle -2.6985e-014 1.07344e-014
lhumerus -35.767 0.687004 81.0007
lradius 31.0497
lwrist -2.1085
lhand -19.3987 13.2209
lfingers 7.12502
lthumb 6.92026 43.0878
rfemur -0.931196 16.3085 24.1238
rtibia 21.3776
rfoot -33.7653 -32.1474
rtoes -10.5769
lfemur -0.674455 -17.1219 -21.4044
ltibia 23.0617
lfoot -26.6854 29.2126
ltoes 1.49537
49
root 16.8439 15.4525 -0.61342 173.763 -81.1087 -176.495
lowerback 4.64529 2.04119 -1.28141
upperback 2.3089 2.60559 -1.14382
thorax -0.235028 1.27627 -0.578774
lowerneck -5.63799 1.67335 7.39744
upperneck 3.56987 1.76596 -2.28184
head 2.2267 0.92176 -1.96542
rclavicle 6.2319e-014 -3.02153e-014
rhumerus -35.6201 6.46308 -92.1787
rradius 30.5184
rwrist -18.8206
rhand -15.7503 0.744226
rfingers 7.12502
rthumb 10.441 -28.9765
lclavicle 6.2319e-014 -3.02153e-014
lhumerus -35.6868 0.555931 80.9732
lradius 31.0764
lwrist -2.05985
lhand -19.7773 13.817
lfingers 7.12502
lthumb 6.55483 43.6956
rfemur -1.0075 16.3573 24.1662
rtibia 21.3421
rfoot -33.6248 -32.1512
rtoes -10.7114
lfemur -0.750809 -17.094 -21.3157
ltibia 23.0923
lfoot -26.7863 29.224
ltoes 1.66037
